Motion_pu07
version=1
nRows=8
nColumns=43
inDegrees=yes
endheader
time	pelvis_tilt	pelvis_list	pelvis_rotation	pelvis_tx	pelvis_ty	pelvis_tz	hip_flexion_r	hip_adduction_r	hip_rotation_r	knee_angle_r	ankle_angle_r	subtalar_angle_r	mtp_angle_r	hip_flexion_l	hip_adduction_l	hip_rotation_l	knee_angle_l	ankle_angle_l	subtalar_angle_l	mtp_angle_l	lumbar_extension	lumbar_bending	lumbar_rotation	neck_flexion	neck_lateral_bending	neck_rotation	arm_flex_r	arm_add_r	arm_rot_r	elbow_flex_r	pro_sup_r	wrist_flex_r	wrist_dev_r	hand_finger_flex_r	arm_flex_l	arm_add_l	arm_rot_l	elbow_flex_l	pro_sup_l	wrist_flex_l	wrist_dev_l	hand_finger_flex_l
      0.00250000	      0.31287478	      4.80420502	    -87.65966607	     -0.01779987	      0.93091056	      0.74753861	      0.70331863	     -8.12248758	     -3.06158151	    -24.39230475	     14.25936780	     -0.31487706	     10.43808323	     14.88911513	     -3.63842672	     -9.12869131	    -31.76072121	     15.69475950	     12.79931477	      7.33251713	     -3.65489310	      0.78995436	      7.96945804	     41.95239934	     -6.03299097	     -9.29992704	    -27.54388258	   -141.56367809	   -121.07986819	     56.08261901	    126.99036298	     16.49898829	     -5.47488047	    -11.55819650	    140.16720220	    -20.34073672	     45.89257775	     43.16902649	    126.70775831	     -3.76799963	      0.02177139	     -8.74231088
      0.00500000	      0.28917501	      4.83404334	    -87.66796231	     -0.01715840	      0.93072380	      0.74917033	      0.67527979	     -8.14977497	     -3.05201187	    -24.43471362	     14.25345594	     -0.30896832	     10.44197171	     14.83485579	     -3.61784377	     -9.13057560	    -31.80610340	     15.68981608	     12.78840197	      7.33433164	     -3.56912297	      0.83711676	      7.97434835	     41.94671070	     -6.03079459	     -9.29939779	    -27.47699905	   -141.57663506	   -121.15442132	     56.10320336	    126.97216200	     16.48963038	     -5.49771608	    -11.56734726	    140.20091574	    -20.31495877	     45.87755055	     43.19167795	    126.70661914	     -3.76436832	      0.02104299	     -8.74121885
      0.00750000	      0.26871165	      4.85591570	    -87.66169974	     -0.01652370	      0.93055925	      0.75077897	      0.65284368	     -8.17555556	     -3.03743024	    -24.49986282	     14.24343334	     -0.30030832	     10.44649764	     14.77531029	     -3.60125620	     -9.12837206	    -31.86249566	     15.68767854	     12.77528073	      7.33690939	     -3.48503748	      0.88081253	      7.98802093	     41.94012244	     -6.02974285	     -9.29862738	    -27.41514313	   -141.57462330	   -121.23750845	     56.12913093	    126.94433794	     16.48554542	     -5.52355882	    -11.57525534	    140.22960294	    -20.30505931	     45.85730386	     43.21382596	    126.70485745	     -3.76131702	      0.02021190	     -8.74016697
      0.01000000	      0.24324510	      4.87323448	    -87.66937515	     -0.01587557	      0.93039292	      0.75240683	      0.63471219	     -8.20205893	     -3.01913768	    -24.58239269	     14.23048465	     -0.29035712	     10.45100850	     14.71837083	     -3.58489193	     -9.12278731	    -31.92337298	     15.68817778	     12.76240230	      7.33986217	     -3.41602191	      0.92330334	      7.98399009	     41.93266256	     -6.03019726	     -9.29787178	    -27.36134213	   -141.56460973	   -121.31633377	     56.15500155	    126.91149175	     16.48702849	     -5.54868626	    -11.58083983	    140.24842979	    -20.29146914	     45.83722706	     43.23997256	    126.70243095	     -3.75951411	      0.01740447	     -8.73940098
      0.01250000	      0.21774729	      4.87889104	    -87.65530656	     -0.01518460	      0.93023922	      0.75406442	      0.62036495	     -8.23552574	     -2.99236102	    -24.70285139	     14.21107770	     -0.27611587	     10.45657708	     14.64780850	     -3.56964435	     -9.11153216	    -32.00472134	     15.69184320	     12.74632597	      7.34395311	     -3.33801482	      0.97443196	      7.99542887	     41.92312655	     -6.03110340	     -9.29698909	    -27.32181013	   -141.54564901	   -121.40333499	     56.18396156	    126.86613912	     16.49442975	     -5.57950716	    -11.58537206	    140.27932788	    -20.27936324	     45.80676465	     43.27694453	    126.69856040	     -3.75995797	      0.01250432	     -8.73903003
      0.01500000	      0.12258302	      4.64925221	    -87.76454840	     -0.01594937	      0.93065375	      0.75451320	      1.41996259	     -8.11038227	     -2.47638408	    -26.74112379	     13.76266617	      0.17810542	     10.64889450	     14.71960813	     -3.71744419	     -8.75877519	    -32.69930918	     15.94863109	     12.25059482	      7.47392553	     -3.67543338	      0.94276923	      7.93611485	     41.62652110	     -5.83488749	     -9.30698494	    -27.58621213	   -141.50829334	   -122.14316534	     56.17827255	    125.60012389	     16.95380730	     -6.27690662	    -11.65190239	    140.32429969	    -20.24556685	     45.13731454	     43.60236154	    126.62097157	     -3.61288755	      0.00082607	     -8.68220036
      0.01750000	      0.09690471	      4.67587210	    -87.77638245	     -0.01522963	      0.93052411	      0.75595185	      1.40233484	     -8.14607870	     -2.45934340	    -26.77360024	     13.76115832	      0.18011192	     10.65354409	     14.67707744	     -3.69569135	     -8.75826646	    -32.73274607	     15.94456275	     12.24438574	      7.47575412	     -3.61155410	      0.99287134	      7.93063357	     41.63721341	     -5.83310078	     -9.30720888	    -27.52749595	   -141.48790237	   -122.17843346	     56.18365840	    125.58782222	     16.95698772	     -6.27871511	    -11.65487979	    140.32948157	    -20.23757746	     45.13549077	     43.60603714	    126.62119566	     -3.60610817	     -0.00066446	     -8.68008562
      0.02000000	      0.07152575	      4.69228350	    -87.76509486	     -0.01446671	      0.93034977	      0.75754082	      1.38319518	     -8.19102191	     -2.43466131	    -26.83784102	     13.75494965	      0.18534377	     10.65925448	     14.61365590	     -3.67540167	     -8.75282552	    -32.78753191	     15.94124152	     12.23606876	      7.47842212	     -3.52193333	      1.05323639	      7.94292815	     41.64833887	     -5.83179095	     -9.30735465	    -27.48626811	   -141.46305801	   -122.20737883	     56.18861663	    125.57050064	     16.96326375	     -6.28340279	    -11.65746664	    140.36265576	    -20.22697562	     45.12224221	     43.62337241	    126.62001846	     -3.60186573	     -0.00425030	     -8.67828354
